<svg width="28" height="32" viewBox="0 0 28 32" fill="none" xmlns="http://www.w3.org/2000/svg">
<g clip-path="url(#clip0_634_540)">
<path d="M14.0061 8.8127C10.0311 8.8127 6.8248 12.0189 6.8248 15.9939C6.8248 19.9689 10.0311 23.1752 14.0061 23.1752C17.9811 23.1752 21.1873 19.9689 21.1873 15.9939C21.1873 12.0189 17.9811 8.8127 14.0061 8.8127ZM14.0061 20.6627C11.4373 20.6627 9.3373 18.5689 9.3373 15.9939C9.3373 13.4189 11.4311 11.3252 14.0061 11.3252C16.5811 11.3252 18.6748 13.4189 18.6748 15.9939C18.6748 18.5689 16.5748 20.6627 14.0061 20.6627ZM23.1561 8.51895C23.1561 9.4502 22.4061 10.1939 21.4811 10.1939C20.5498 10.1939 19.8061 9.44395 19.8061 8.51895C19.8061 7.59395 20.5561 6.84395 21.4811 6.84395C22.4061 6.84395 23.1561 7.59395 23.1561 8.51895ZM27.9123 10.2189C27.8061 7.9752 27.2936 5.9877 25.6498 4.3502C24.0123 2.7127 22.0248 2.2002 19.7811 2.0877C17.4686 1.95645 10.5373 1.95645 8.2248 2.0877C5.9873 2.19395 3.9998 2.70645 2.35605 4.34395C0.712305 5.98145 0.206055 7.96895 0.0935547 10.2127C-0.0376953 12.5252 -0.0376953 19.4564 0.0935547 21.7689C0.199805 24.0127 0.712305 26.0002 2.35605 27.6377C3.9998 29.2752 5.98105 29.7877 8.2248 29.9002C10.5373 30.0314 17.4686 30.0314 19.7811 29.9002C22.0248 29.7939 24.0123 29.2814 25.6498 27.6377C27.2873 26.0002 27.7998 24.0127 27.9123 21.7689C28.0436 19.4564 28.0436 12.5314 27.9123 10.2189ZM24.9248 24.2502C24.4373 25.4752 23.4936 26.4189 22.2623 26.9127C20.4186 27.6439 16.0436 27.4752 14.0061 27.4752C11.9686 27.4752 7.5873 27.6377 5.7498 26.9127C4.5248 26.4252 3.58105 25.4814 3.0873 24.2502C2.35605 22.4064 2.5248 18.0314 2.5248 15.9939C2.5248 13.9564 2.3623 9.5752 3.0873 7.7377C3.5748 6.5127 4.51855 5.56895 5.7498 5.0752C7.59355 4.34395 11.9686 4.5127 14.0061 4.5127C16.0436 4.5127 20.4248 4.35019 22.2623 5.0752C23.4873 5.5627 24.4311 6.50644 24.9248 7.7377C25.6561 9.58145 25.4873 13.9564 25.4873 15.9939C25.4873 18.0314 25.6561 22.4127 24.9248 24.2502Z" fill="#5B5B5B"/>
</g>
<defs>
<clipPath id="clip0_634_540">
<rect width="28" height="32" fill="white"/>
</clipPath>
</defs>
</svg>
