<svg width="20" height="20" viewBox="0 0 20 20" fill="none" xmlns="http://www.w3.org/2000/svg">
<path d="M15.25 9.41667C12.5833 7.83333 8.125 7.66667 5.58333 8.45833C5.16667 8.58333 4.75 8.33333 4.625 7.95833C4.5 7.54167 4.75 7.125 5.125 7C8.08333 6.125 12.9583 6.29167 16.0417 8.125C16.4167 8.33333 16.5417 8.83333 16.3333 9.20833C16.125 9.5 15.625 9.625 15.25 9.41667ZM15.1667 11.75C14.9583 12.0417 14.5833 12.1667 14.2917 11.9583C12.0417 10.5833 8.625 10.1667 6 11C5.66667 11.0833 5.29167 10.9167 5.20833 10.5833C5.125 10.25 5.29167 9.875 5.625 9.79167C8.66667 8.875 12.4167 9.33333 15 10.9167C15.25 11.0417 15.375 11.4583 15.1667 11.75ZM14.1667 14.0417C14 14.2917 13.7083 14.375 13.4583 14.2083C11.5 13 9.04167 12.75 6.125 13.4167C5.83333 13.5 5.58333 13.2917 5.5 13.0417C5.41667 12.75 5.625 12.5 5.875 12.4167C9.04167 11.7083 11.7917 12 13.9583 13.3333C14.25 13.4583 14.2917 13.7917 14.1667 14.0417ZM10.3333 2C9.23898 2 8.15535 2.21555 7.1443 2.63434C6.13326 3.05313 5.2146 3.66696 4.44078 4.44078C2.87797 6.00358 2 8.1232 2 10.3333C2 12.5435 2.87797 14.6631 4.44078 16.2259C5.2146 16.9997 6.13326 17.6135 7.1443 18.0323C8.15535 18.4511 9.23898 18.6667 10.3333 18.6667C12.5435 18.6667 14.6631 17.7887 16.2259 16.2259C17.7887 14.6631 18.6667 12.5435 18.6667 10.3333C18.6667 9.23898 18.4511 8.15535 18.0323 7.1443C17.6135 6.13326 16.9997 5.2146 16.2259 4.44078C15.4521 3.66696 14.5334 3.05313 13.5224 2.63434C12.5113 2.21555 11.4277 2 10.3333 2Z" fill="#5B5B5B"/>
</svg>
